<svg width="67" height="84" viewBox="0 0 67 84" fill="none" xmlns="http://www.w3.org/2000/svg">
<path d="M0.33313 58.782H2.26009V71.1803H9.19245V72.7731H0.333515L0.33313 58.782ZM10.0219 58.782H11.9554V67.2809C11.9554 68.7814 12.232 69.8589 12.7852 70.5181C13.3384 71.1769 14.2333 71.5063 15.4734 71.5063C16.7069 71.5063 17.6018 71.1769 18.155 70.5181C18.7051 69.8589 18.9817 68.7814 18.9817 67.2809V58.782H20.9183V67.5145C20.9183 69.3409 20.4595 70.7165 19.5415 71.6471C18.6238 72.5778 17.2663 73.045 15.4734 73.045C13.677 73.045 12.3163 72.5781 11.3983 71.6471C10.4807 70.7161 10.0215 69.3409 10.0215 67.5145L10.0219 58.782ZM24.5342 58.782H27.405L31.037 68.3043L34.6886 58.782H37.5595V72.7731H35.6814V60.4869L32.0101 70.083H30.0735L26.4022 60.4869V72.7731H24.5342V58.782ZM47.1603 60.0647C45.7642 60.0647 44.6513 60.5766 43.8277 61.6031C43.0044 62.6269 42.5941 64.0247 42.5941 65.7902C42.5941 67.5527 43.0044 68.9472 43.8277 69.971C44.6509 70.9948 45.7642 71.5063 47.1603 71.5063C48.5599 71.5063 49.6663 70.9944 50.4834 69.971C51.3001 68.9472 51.7104 67.5527 51.7104 65.7902C51.7104 64.0247 51.3001 62.6265 50.4834 61.6031C49.6663 60.5763 48.5599 60.0647 47.1603 60.0647ZM47.1603 58.5294C49.1586 58.5294 50.7535 59.1852 51.9481 60.5032C53.1423 61.8178 53.7414 63.5802 53.7414 65.7906C53.7414 67.9976 53.1423 69.757 51.9481 71.0716C50.7538 72.3862 49.159 73.0454 47.1603 73.0454C45.1586 73.0454 43.5576 72.3896 42.3599 71.0781C41.1622 69.7665 40.5635 68.004 40.5635 65.7906C40.5635 63.5802 41.1622 61.8178 42.3599 60.5032C43.5576 59.1852 45.1586 58.5294 47.1603 58.5294ZM65.2885 59.2428V61.0882C64.5562 60.7429 63.8662 60.4869 63.2186 60.3173C62.571 60.1511 61.9461 60.0647 61.3406 60.0647C60.2927 60.0647 59.4822 60.2662 58.9128 60.666C58.3465 61.0658 58.0603 61.6353 58.0603 62.3709C58.0603 62.9885 58.249 63.4553 58.6297 63.7718C59.0072 64.0887 59.7233 64.3413 60.7777 64.5362L61.9427 64.7699C63.3781 65.0387 64.439 65.512 65.1225 66.1901C65.8059 66.8682 66.1476 67.7735 66.1476 68.912C66.1476 70.2682 65.6853 71.295 64.758 71.9955C63.8338 72.6959 62.4797 73.0446 60.693 73.0446C60.0192 73.0446 59.3034 72.9678 58.5418 72.8208C57.7833 72.6705 56.9958 72.4464 56.1822 72.1556V70.2046C56.9635 70.6366 57.7316 70.9626 58.4802 71.1803C59.2321 71.3976 59.9676 71.5063 60.6934 71.5063C61.7936 71.5063 62.6396 71.2954 63.2386 70.8698C63.8373 70.4443 64.1335 69.84 64.1335 69.0532C64.1335 68.3652 63.922 67.828 63.4925 67.441C63.063 67.0541 62.3599 66.7629 61.3802 66.5679L60.2053 66.3442C58.7699 66.0628 57.732 65.6244 57.0875 65.0231C56.4465 64.4249 56.1275 63.5901 56.1275 62.5216C56.1275 61.2835 56.5702 60.3112 57.4554 59.5979C58.3438 58.8846 59.5642 58.5294 61.1233 58.5294C61.7905 58.5294 62.4708 58.587 63.1639 58.7085C63.8573 58.827 64.5627 59.0027 65.2885 59.2428Z" fill="#FFFAF5" stroke="#FFFDFA" stroke-width="0.666239" stroke-miterlimit="2.61313"/>
<path d="M14.9798 78.8271C15.217 78.8271 15.4598 78.8475 15.7064 78.8905C15.9422 78.931 16.1822 78.9907 16.429 79.0702V79.6259C16.1889 79.5166 15.961 79.4333 15.7454 79.3769C15.5091 79.3162 15.2801 79.2841 15.0579 79.2841C14.676 79.2841 14.3733 79.3579 14.1575 79.5097C13.9402 79.6631 13.8304 79.8828 13.8304 80.162C13.8305 80.3942 13.9016 80.5768 14.0521 80.7021C14.198 80.8247 14.4665 80.9171 14.846 80.9872L15.265 81.0712H15.2659C15.7772 81.1668 16.1478 81.3349 16.3841 81.5692C16.6191 81.8024 16.7385 82.1148 16.7386 82.5136C16.7386 82.9891 16.5776 83.3434 16.2581 83.5849C15.9375 83.8277 15.4629 83.952 14.8255 83.9521C14.5868 83.9521 14.3324 83.9245 14.0609 83.872C13.8005 83.8203 13.5307 83.7429 13.2513 83.6444V83.0575C13.5107 83.1955 13.7664 83.3023 14.0169 83.3749C14.2912 83.4544 14.5596 83.494 14.8255 83.4941C15.2264 83.4941 15.5422 83.4177 15.7689 83.2567C15.998 83.094 16.1106 82.8616 16.1107 82.5644C16.1107 82.3387 16.0498 82.1515 15.9232 82.0077L15.8646 81.9491C15.7006 81.8012 15.4378 81.694 15.0823 81.623H15.0814L14.6595 81.5429C14.211 81.455 13.8768 81.3253 13.6517 81.1552L13.5618 81.079C13.3434 80.875 13.2318 80.5888 13.2318 80.2148C13.2318 79.7827 13.3859 79.4478 13.6917 79.2011C13.9998 78.9539 14.4266 78.8271 14.9798 78.8271ZM26.4525 78.9189V81.9276C26.4525 82.4708 26.5519 82.8719 26.762 83.122C26.9737 83.3739 27.3116 83.495 27.765 83.495C28.2161 83.495 28.5546 83.374 28.7659 83.122C28.9744 82.872 29.0745 82.4705 29.0745 81.9276V78.9189H29.6751V82.0107C29.6751 82.66 29.5119 83.1411 29.1937 83.4638C28.8755 83.7863 28.4013 83.9521 27.765 83.9521C27.1272 83.952 26.6525 83.7861 26.3343 83.4638C26.016 83.1411 25.8529 82.6596 25.8529 82.0107V78.9189H26.4525ZM46.1702 78.828C46.7886 78.828 47.295 79.0054 47.6927 79.3593L47.8568 79.5224C48.2764 79.9844 48.4896 80.6054 48.4896 81.3915C48.4895 82.1759 48.2763 82.7957 47.8568 83.2577C47.4375 83.719 46.877 83.9521 46.1702 83.9521C45.4624 83.952 44.9001 83.7201 44.4798 83.2597C44.0592 82.7992 43.846 82.1778 43.846 81.3905C43.8461 80.6049 44.0591 79.9834 44.4798 79.5214C44.8477 79.1166 45.3246 78.8893 45.9124 78.8388L46.1702 78.828ZM34.3109 78.9189C35.297 78.9189 36.0113 79.1208 36.4632 79.5155C36.9125 79.9079 37.1428 80.5272 37.1429 81.3817C37.1429 82.2395 36.9114 82.8616 36.4593 83.2567C36.0062 83.6516 35.2914 83.8544 34.3099 83.8544H32.9349V78.9189H34.3109ZM40.803 78.9189V83.8544H40.2064V78.9189H40.803ZM23.303 78.9189V79.3964H21.4857V83.8544H20.8851V79.3964H19.0677V78.9189H23.303ZM46.1702 79.2841C45.6551 79.2842 45.2408 79.4742 44.9349 79.8554C44.6298 80.2344 44.4808 80.749 44.4808 81.3905C44.4808 82.0314 44.6298 82.5447 44.9349 82.9237C45.2408 83.3038 45.6546 83.4939 46.1702 83.4941C46.6868 83.4941 47.0999 83.304 47.4036 82.9237C47.7062 82.5447 47.8548 82.0313 47.8548 81.3905C47.8547 80.7487 47.7059 80.2343 47.4036 79.8554C47.0999 79.4739 46.6868 79.2841 46.1702 79.2841ZM33.5325 83.3915H34.4173C35.1287 83.3915 35.6611 83.2329 36.0013 82.9052C36.3423 82.5786 36.5081 82.0657 36.5081 81.3817C36.5081 80.7011 36.3414 80.1905 36.0003 79.8651C35.6601 79.5406 35.1284 79.3818 34.4173 79.3817H33.5325V83.3915Z" fill="#FEFEFE" stroke="#FFFAF4" stroke-width="0.0959999"/>
<path d="M25.4076 9.534C26.9765 10.4745 28.7501 12.0602 29.7298 13.9979C30.7124 15.9411 30.8973 18.238 29.2748 20.6004C28.2003 22.1644 26.3191 23.6368 24.557 25.0535C23.6774 25.7607 22.828 26.4541 22.1273 27.1356C21.427 27.8167 20.871 28.4906 20.5834 29.159L20.5687 29.1942L20.6 29.2166C22.5874 30.6073 24.5271 32.046 26.1566 33.532C27.7864 35.0184 29.1033 36.5504 29.849 38.1268C30.5938 39.7016 30.7688 41.3204 30.1156 42.9861C29.4634 44.649 27.9829 46.364 25.4076 48.1307C24.8524 47.8771 24.0694 47.3315 23.1693 46.619C22.2569 45.8967 21.2272 45.0068 20.1957 44.0897C18.1341 42.2569 16.0634 40.3099 14.9212 39.3651C13.7493 38.3957 12.2909 37.3072 10.8968 36.0994C9.50414 34.8928 8.18394 33.5731 7.29625 32.1512C6.40903 30.73 5.95532 29.2095 6.29039 27.5975C6.62574 25.9846 7.75249 24.2708 10.0433 22.4676C11.7429 21.1299 15.0582 18.0703 18.2132 15.2586C19.7915 13.8521 21.3308 12.5067 22.6087 11.4686C23.2476 10.9496 23.821 10.5081 24.3011 10.1736C24.7703 9.84683 25.147 9.62617 25.4076 9.534Z" fill="white" stroke="#FFFAF4" stroke-width="0.0959999"/>
<path d="M40.9586 19.749L40.9557 19.7422C40.7387 19.0925 40.2063 18.4358 39.5035 17.7666C38.7997 17.0965 37.9188 16.4083 37.0006 15.6963C35.161 14.2699 33.1695 12.7485 32.1002 11.0713C31.2734 9.7744 30.9732 8.56122 31.023 7.44141C31.073 6.32123 31.4738 5.28998 32.0582 4.35742C33.219 2.50536 35.0967 1.04858 36.3551 0.0615234L46.5221 8.77051C48.0927 10.2864 49.9171 11.8472 51.735 13.3818C53.8805 15.193 54.9664 16.8388 55.3131 18.3613C55.6593 19.8824 55.2695 21.2888 54.4449 22.626C53.6197 23.9642 52.3612 25.2303 50.9752 26.4678C50.2824 27.0863 49.5588 27.697 48.8424 28.3057C48.1262 28.9142 47.4167 29.5204 46.7545 30.1299C43.7892 32.8587 39.8817 36.2825 36.6187 38.8135C35.0283 38.2556 33.145 36.7354 32.0387 34.7705C30.9277 32.7974 30.6023 30.3827 32.1344 28.0508C33.1332 26.5305 34.5907 25.1841 36.1725 23.8574C37.7523 22.5323 39.4582 21.2258 40.9439 19.792L40.9586 19.7783V19.749Z" fill="#FFFDFB" stroke="#FFFAF4" stroke-width="0.0959999"/>
</svg>
